<?xml version="1.0" standalone="no"?>
<!DOCTYPE svg PUBLIC "-//W3C//DTD SVG 20010904//EN"
 "http://www.w3.org/TR/2001/REC-SVG-20010904/DTD/svg10.dtd">
<svg version="1.0" xmlns="http://www.w3.org/2000/svg"
 width="319.000000pt" height="693.000000pt" viewBox="0 0 319.000000 693.000000"
 preserveAspectRatio="xMidYMid meet">

<g transform="translate(0.000000,693.000000) scale(0.100000,-0.100000)"
fill="#000000" stroke="none">
<path d="M607 6322 l-607 -607 2 -238 3 -237 845 845 845 845 -240 0 -240 0
-608 -608z"/>
<path d="M1147 5782 l-1147 -1147 0 -2318 0 -2317 283 0 282 0 1313 1313 1312
1312 0 2153 0 2152 -448 0 -447 0 -1148 -1148z"/>
<path d="M2245 940 l-940 -940 235 0 235 0 708 708 707 707 -2 233 -3 232
-940 -940z"/>
</g>
</svg>
